<svg width="13" height="14" viewBox="0 0 13 14" fill="none" xmlns="http://www.w3.org/2000/svg">
<mask id="path-1-inside-1_1080_1783" fill="white">
<path fill-rule="evenodd" clip-rule="evenodd" d="M12.4399 4.77358C12.4802 4.73333 12.5123 4.68551 12.5341 4.63286C12.5559 4.58022 12.5672 4.52378 12.5672 4.46679C12.5672 4.40979 12.5559 4.35336 12.5341 4.30071C12.5123 4.24807 12.4802 4.20025 12.4399 4.16L8.97337 0.693481C8.892 0.612116 8.78165 0.566406 8.66658 0.566406C8.55151 0.566406 8.44116 0.612116 8.35979 0.693481C8.27843 0.774846 8.23272 0.885201 8.23272 1.00027C8.23272 1.11534 8.27843 1.22569 8.35979 1.30706L11.0871 4.03347H2.60017C2.02556 4.03347 1.47448 4.26174 1.06817 4.66805C0.661857 5.07436 0.433594 5.62544 0.433594 6.20005L0.433594 13.1331C0.433594 13.248 0.479246 13.3582 0.560509 13.4395C0.641771 13.5208 0.751987 13.5664 0.866909 13.5664C0.981831 13.5664 1.09205 13.5208 1.17331 13.4395C1.25457 13.3582 1.30022 13.248 1.30022 13.1331L1.30022 6.20005C1.30022 5.85528 1.43718 5.52464 1.68097 5.28085C1.92476 5.03706 2.2554 4.9001 2.60017 4.9001H11.0871L8.35979 7.62652C8.27843 7.70789 8.23272 7.81824 8.23272 7.93331C8.23272 8.04838 8.27843 8.15873 8.35979 8.2401C8.44116 8.32146 8.55151 8.36717 8.66658 8.36717C8.78165 8.36717 8.892 8.32146 8.97337 8.2401L12.4399 4.77358Z"/>
</mask>
<path fill-rule="evenodd" clip-rule="evenodd" d="M12.4399 4.77358C12.4802 4.73333 12.5123 4.68551 12.5341 4.63286C12.5559 4.58022 12.5672 4.52378 12.5672 4.46679C12.5672 4.40979 12.5559 4.35336 12.5341 4.30071C12.5123 4.24807 12.4802 4.20025 12.4399 4.16L8.97337 0.693481C8.892 0.612116 8.78165 0.566406 8.66658 0.566406C8.55151 0.566406 8.44116 0.612116 8.35979 0.693481C8.27843 0.774846 8.23272 0.885201 8.23272 1.00027C8.23272 1.11534 8.27843 1.22569 8.35979 1.30706L11.0871 4.03347H2.60017C2.02556 4.03347 1.47448 4.26174 1.06817 4.66805C0.661857 5.07436 0.433594 5.62544 0.433594 6.20005L0.433594 13.1331C0.433594 13.248 0.479246 13.3582 0.560509 13.4395C0.641771 13.5208 0.751987 13.5664 0.866909 13.5664C0.981831 13.5664 1.09205 13.5208 1.17331 13.4395C1.25457 13.3582 1.30022 13.248 1.30022 13.1331L1.30022 6.20005C1.30022 5.85528 1.43718 5.52464 1.68097 5.28085C1.92476 5.03706 2.2554 4.9001 2.60017 4.9001H11.0871L8.35979 7.62652C8.27843 7.70789 8.23272 7.81824 8.23272 7.93331C8.23272 8.04838 8.27843 8.15873 8.35979 8.2401C8.44116 8.32146 8.55151 8.36717 8.66658 8.36717C8.78165 8.36717 8.892 8.32146 8.97337 8.2401L12.4399 4.77358Z" fill="#393838"/>
<path d="M12.4399 4.77358L11.7337 4.06558L11.7328 4.06647L12.4399 4.77358ZM12.4399 4.16L11.7328 4.86711L11.7337 4.868L12.4399 4.16ZM8.97337 0.693481L9.68047 -0.0136251L8.97337 0.693481ZM8.35979 0.693481L7.65269 -0.0136251L8.35979 0.693481ZM8.23272 1.00027H9.23272H8.23272ZM8.35979 1.30706L7.65269 2.01416L7.6528 2.01427L8.35979 1.30706ZM11.0871 4.03347V5.03347H13.5018L11.7941 3.32625L11.0871 4.03347ZM0.433594 13.1331H-0.566406H0.433594ZM1.30022 13.1331H2.30022H1.30022ZM11.0871 4.9001L11.7941 5.60732L13.5018 3.9001H11.0871V4.9001ZM8.35979 7.62652L7.6528 6.9193L7.65269 6.91942L8.35979 7.62652ZM8.23272 7.93331L7.23272 7.93331L8.23272 7.93331ZM8.35979 8.2401L7.65269 8.9472L8.35979 8.2401ZM8.66658 8.36717V9.36717V8.36717ZM8.97337 8.2401L9.68047 8.9472L8.97337 8.2401ZM13.1461 5.48158C13.2796 5.34843 13.3855 5.19027 13.4577 5.01613L11.6105 4.2496C11.639 4.18075 11.6809 4.11822 11.7337 4.06558L13.1461 5.48158ZM13.4577 5.01613C13.53 4.842 13.5672 4.65532 13.5672 4.46679H11.5672C11.5672 4.39225 11.5819 4.31845 11.6105 4.2496L13.4577 5.01613ZM13.5672 4.46679C13.5672 4.27826 13.53 4.09158 13.4577 3.91745L11.6105 4.68398C11.5819 4.61514 11.5672 4.54133 11.5672 4.46679H13.5672ZM13.4577 3.91745C13.3855 3.74332 13.2796 3.58515 13.1461 3.452L11.7337 4.868C11.6809 4.81536 11.639 4.75282 11.6105 4.68398L13.4577 3.91745ZM13.147 3.4529L9.68047 -0.0136251L8.26626 1.40059L11.7328 4.86711L13.147 3.4529ZM9.68047 -0.0136251C9.41157 -0.282528 9.04686 -0.433594 8.66658 -0.433594V1.56641C8.51643 1.56641 8.37243 1.50676 8.26626 1.40059L9.68047 -0.0136251ZM8.66658 -0.433594C8.2863 -0.433594 7.92159 -0.282528 7.65269 -0.0136251L9.0669 1.40059C8.96073 1.50676 8.81673 1.56641 8.66658 1.56641V-0.433594ZM7.65269 -0.0136251C7.38378 0.255278 7.23272 0.619987 7.23272 1.00027H9.23272C9.23272 1.15042 9.17307 1.29442 9.0669 1.40059L7.65269 -0.0136251ZM7.23272 1.00027C7.23272 1.38055 7.38378 1.74526 7.65269 2.01416L9.0669 0.599949C9.17307 0.706121 9.23272 0.850121 9.23272 1.00027H7.23272ZM7.6528 2.01427L10.3801 4.74069L11.7941 3.32625L9.06679 0.599836L7.6528 2.01427ZM11.0871 3.03347H2.60017V5.03347H11.0871V3.03347ZM2.60017 3.03347C1.76034 3.03347 0.95491 3.36709 0.361062 3.96094L1.77528 5.37516C1.99405 5.15638 2.29077 5.03347 2.60017 5.03347V3.03347ZM0.361062 3.96094C-0.232786 4.55479 -0.566406 5.36022 -0.566406 6.20005H1.43359C1.43359 5.89065 1.5565 5.59393 1.77528 5.37516L0.361062 3.96094ZM-0.566406 6.20005L-0.566406 13.1331H1.43359L1.43359 6.20005H-0.566406ZM-0.566406 13.1331C-0.566406 13.5132 -0.415397 13.8778 -0.146598 14.1466L1.26762 12.7324C1.37389 12.8387 1.43359 12.9828 1.43359 13.1331H-0.566406ZM-0.146598 14.1466C0.122202 14.4154 0.486772 14.5664 0.866909 14.5664V12.5664C1.0172 12.5664 1.16134 12.6261 1.26762 12.7324L-0.146598 14.1466ZM0.866909 14.5664C1.24705 14.5664 1.61162 14.4154 1.88042 14.1466L0.466202 12.7324C0.572478 12.6261 0.716617 12.5664 0.866909 12.5664V14.5664ZM1.88042 14.1466C2.14922 13.8778 2.30022 13.5132 2.30022 13.1331H0.300224C0.300224 12.9828 0.359927 12.8387 0.466202 12.7324L1.88042 14.1466ZM2.30022 13.1331L2.30022 6.20005H0.300224L0.300224 13.1331H2.30022ZM2.30022 6.20005C2.30022 6.1205 2.33182 6.04421 2.38808 5.98796L0.973862 4.57374C0.542539 5.00507 0.300224 5.59007 0.300224 6.20005H2.30022ZM2.38808 5.98796C2.44433 5.93171 2.52062 5.9001 2.60017 5.9001V3.9001C1.99018 3.9001 1.40518 4.14242 0.973862 4.57374L2.38808 5.98796ZM2.60017 5.9001L11.0871 5.9001V3.9001H2.60017V5.9001ZM10.3801 4.19289L7.6528 6.9193L9.06679 8.33374L11.7941 5.60732L10.3801 4.19289ZM7.65269 6.91942C7.38378 7.18832 7.23272 7.55303 7.23272 7.93331L9.23272 7.93331C9.23272 8.08346 9.17307 8.22746 9.0669 8.33363L7.65269 6.91942ZM7.23272 7.93331C7.23272 8.31359 7.38378 8.6783 7.65269 8.9472L9.0669 7.53299C9.17307 7.63916 9.23272 7.78316 9.23272 7.93331L7.23272 7.93331ZM7.65269 8.9472C7.92159 9.21611 8.2863 9.36717 8.66658 9.36717V7.36717C8.81673 7.36717 8.96073 7.42682 9.0669 7.53299L7.65269 8.9472ZM8.66658 9.36717C9.04686 9.36717 9.41157 9.21611 9.68047 8.9472L8.26626 7.53299C8.37243 7.42682 8.51643 7.36717 8.66658 7.36717V9.36717ZM9.68047 8.9472L13.147 5.48068L11.7328 4.06647L8.26626 7.53299L9.68047 8.9472Z" fill="#393838" mask="url(#path-1-inside-1_1080_1783)"/>
</svg>
